<svg width="35" height="35" viewBox="0 0 35 35" fill="none" xmlns="http://www.w3.org/2000/svg">
<path opacity="0.4" fill-rule="evenodd" clip-rule="evenodd" d="M5.88086 29.6426C12.4425 36.2042 23.081 36.2042 29.6426 29.6426C36.2042 23.081 36.2042 12.4425 29.6426 5.88086C23.081 -0.680758 12.4425 -0.680758 5.88086 5.88086C-0.680757 12.4425 -0.680758 23.081 5.88086 29.6426ZM27.4009 8.12252C26.7819 7.5035 25.7783 7.5035 25.1592 8.12252L18.2101 15.0717L10.8125 7.67418C10.1935 7.05516 9.18989 7.05516 8.57087 7.67418C7.95184 8.2932 7.95185 9.29683 8.57087 9.91585L15.9684 17.3134L8.12253 25.1592C7.50351 25.7782 7.50351 26.7819 8.12253 27.4009C8.74155 28.0199 9.74518 28.0199 10.3642 27.4009L18.2101 19.555L25.6076 26.9526C26.2266 27.5716 27.2302 27.5716 27.8492 26.9526C28.4683 26.3335 28.4683 25.3299 27.8492 24.7109L20.4517 17.3134L27.4009 10.3642C28.0199 9.74517 28.0199 8.74154 27.4009 8.12252Z" fill="white"/>
</svg>
