<svg width="430" height="471" viewBox="0 0 430 471" fill="none" xmlns="http://www.w3.org/2000/svg">
<g filter="url(#filter0_d_90_3001)">
<path d="M218 297C256.66 297 288 265.66 288 227C288 188.34 256.66 157 218 157C179.34 157 148 188.34 148 227C148 265.66 179.34 297 218 297Z" fill="#F6D738"/>
<path d="M218 297C256.66 297 288 265.66 288 227C288 188.34 256.66 157 218 157C179.34 157 148 188.34 148 227C148 265.66 179.34 297 218 297Z" fill="#F6D738"/>
<path d="M218 286.408C250.81 286.408 277.408 259.81 277.408 227C277.408 194.19 250.81 167.591 218 167.591C185.19 167.591 158.591 194.19 158.591 227C158.591 259.81 185.19 286.408 218 286.408Z" fill="#F3CC30"/>
<path d="M249.082 176.296C255.202 185.845 258.446 196.953 258.428 208.295C258.428 241.106 231.83 267.704 199.019 267.704C188.044 267.721 177.28 264.683 167.933 258.929C173.302 267.337 180.704 274.256 189.455 279.047C198.206 283.838 208.024 286.345 218 286.338C250.811 286.338 277.417 259.74 277.417 226.929C277.421 216.77 274.818 206.78 269.857 197.915C264.896 189.05 257.743 181.606 249.082 176.296Z" fill="#EDBD31"/>
<path d="M168.998 232.437C168.998 203.473 192.478 179.993 221.442 179.993C229.477 179.987 237.407 181.83 244.615 185.381C251.824 188.932 258.119 194.094 263.012 200.468C258.416 192.471 251.792 185.827 243.807 181.208C235.823 176.59 226.761 174.16 217.537 174.164C188.567 174.164 165.095 197.642 165.095 226.605C165.079 238.171 168.903 249.416 175.967 258.574C171.388 250.625 168.984 241.61 168.998 232.437Z" fill="#F7DB5E"/>
<path d="M222.903 188.656V196.224C225.941 196.714 228.426 197.718 230.357 199.236C232.289 200.754 234.126 203.084 235.869 206.225L228.34 210.434C226.074 206.318 223.113 204.261 219.459 204.261C217.193 204.261 215.313 204.93 213.82 206.269C213.101 206.89 212.527 207.662 212.14 208.529C211.754 209.397 211.563 210.339 211.582 211.289C211.582 213.116 212.187 214.635 213.396 215.844C214.585 217.035 216.982 218.438 220.586 220.055C223.236 221.231 225.813 222.566 228.303 224.052C230.338 225.302 231.871 226.506 232.899 227.664C235.807 230.803 237.261 234.6 237.263 239.053C237.263 243.432 235.949 247.294 233.323 250.639C230.724 253.96 227.249 256.199 222.897 257.357V265.351H216.146V257.582C211.101 256.76 207.253 255.023 204.6 252.37C201.947 249.717 199.99 245.623 198.731 240.09L207.225 238.315C208.385 242.229 209.801 245.022 211.474 246.693C213.224 248.289 215.554 249.087 218.463 249.087C221.294 249.087 223.662 248.174 225.569 246.347C227.447 244.546 228.386 242.216 228.386 239.358C228.386 236.809 227.601 234.762 226.032 233.217C225.234 232.471 224.058 231.628 222.504 230.689C220.574 229.555 218.582 228.53 216.538 227.617C211.541 225.377 208.259 223.32 206.692 221.444C204.193 218.638 202.944 215.279 202.944 211.366C202.926 209.603 203.224 207.85 203.826 206.192C204.415 204.601 205.285 203.13 206.394 201.846C207.578 200.495 208.982 199.353 210.546 198.469C212.302 197.472 214.185 196.719 216.143 196.229V188.656H222.903Z" fill="#D49A34"/>
</g>
<defs>
<filter id="filter0_d_90_3001" x="-22" y="-9.00002" width="480" height="480" filterUnits="userSpaceOnUse" color-interpolation-filters="sRGB">
<feFlood flood-opacity="0" result="BackgroundImageFix"/>
<feColorMatrix in="SourceAlpha" type="matrix" values="0 0 0 0 0 0 0 0 0 0 0 0 0 0 0 0 0 0 127 0" result="hardAlpha"/>
<feOffset dy="4"/>
<feGaussianBlur stdDeviation="85"/>
<feComposite in2="hardAlpha" operator="out"/>
<feColorMatrix type="matrix" values="0 0 0 0 0.952941 0 0 0 0 0.8 0 0 0 0 0.188235 0 0 0 1 0"/>
<feBlend mode="normal" in2="BackgroundImageFix" result="effect1_dropShadow_90_3001"/>
<feBlend mode="normal" in="SourceGraphic" in2="effect1_dropShadow_90_3001" result="shape"/>
</filter>
</defs>
</svg>
