<svg width="213" height="97" viewBox="0 0 213 97" fill="none" xmlns="http://www.w3.org/2000/svg">
<path d="M17.09 33.52H42.626C43.0953 33.52 43.5007 33.6907 43.842 34.032C44.1833 34.3733 44.354 34.7787 44.354 35.248V44.272C44.354 44.7413 44.1833 45.1467 43.842 45.488C43.5007 45.8293 43.0953 46 42.626 46H2.178C1.70867 46 1.30334 45.8293 0.962003 45.488C0.620669 45.1467 0.450003 44.7413 0.450003 44.272V2.928C0.450003 2.45867 0.620669 2.05333 0.962003 1.712C1.30334 1.37066 1.70867 1.2 2.178 1.2H41.986C42.4553 1.2 42.8607 1.37066 43.202 1.712C43.5433 2.05333 43.714 2.45867 43.714 2.928V11.952C43.714 12.4213 43.5433 12.8267 43.202 13.168C42.8607 13.5093 42.4553 13.68 41.986 13.68H17.09V17.712H38.466C38.9353 17.712 39.3407 17.8827 39.682 18.224C40.0233 18.5653 40.194 18.9707 40.194 19.44V27.76C40.194 28.2293 40.0233 28.6347 39.682 28.976C39.3407 29.3173 38.9353 29.488 38.466 29.488H17.09V33.52ZM85.673 1.2H98.857C99.3263 1.2 99.7317 1.37066 100.073 1.712C100.414 2.05333 100.585 2.45867 100.585 2.928V44.272C100.585 44.7413 100.414 45.1467 100.073 45.488C99.7317 45.8293 99.3263 46 98.857 46H85.673C85.2037 46 84.7983 45.8293 84.457 45.488C84.1157 45.1467 83.945 44.7413 83.945 44.272V30.64H71.145V44.272C71.145 44.7413 70.9743 45.1467 70.633 45.488C70.2917 45.8293 69.8863 46 69.417 46H56.233C55.7637 46 55.3583 45.8507 55.017 45.552C54.6757 45.2107 54.505 44.784 54.505 44.272V2.928C54.505 2.45867 54.6757 2.05333 55.017 1.712C55.3583 1.37066 55.7637 1.2 56.233 1.2H69.417C69.8863 1.2 70.2917 1.37066 70.633 1.712C70.9743 2.05333 71.145 2.45867 71.145 2.928V16.048H83.945V2.928C83.945 2.45867 84.1157 2.05333 84.457 1.712C84.7983 1.37066 85.2037 1.2 85.673 1.2ZM157.008 19.696V27.504C157.008 31.8987 155.941 35.568 153.808 38.512C151.675 41.456 148.88 43.5467 145.424 44.784C141.968 46.0213 137.893 46.64 133.2 46.64C128.507 46.64 124.432 46.0213 120.976 44.784C117.52 43.5467 114.725 41.456 112.592 38.512C110.459 35.568 109.392 31.856 109.392 27.376V19.824C109.392 13.3813 111.589 8.56 115.984 5.36C120.421 2.16 126.16 0.559998 133.2 0.559998C140.24 0.559998 145.957 2.16 150.352 5.36C154.789 8.56 157.008 13.3387 157.008 19.696ZM126.672 18.48V28.72C126.672 30.4693 127.248 31.8133 128.4 32.752C129.595 33.6907 131.195 34.16 133.2 34.16C135.205 34.16 136.784 33.6907 137.936 32.752C139.131 31.7707 139.728 30.4053 139.728 28.656V18.544C139.728 16.7947 139.131 15.4507 137.936 14.512C136.784 13.5307 135.205 13.04 133.2 13.04C131.195 13.04 129.595 13.5093 128.4 14.448C127.248 15.3867 126.672 16.7307 126.672 18.48ZM166.775 1.2H210.935C211.404 1.2 211.81 1.37066 212.151 1.712C212.492 2.05333 212.663 2.45867 212.663 2.928V13.232C212.663 13.7013 212.492 14.1067 212.151 14.448C211.81 14.7893 211.404 14.96 210.935 14.96H197.175V44.272C197.175 44.7413 197.004 45.1467 196.663 45.488C196.322 45.8293 195.916 46 195.447 46H182.263C181.794 46 181.388 45.8293 181.047 45.488C180.706 45.1467 180.535 44.7413 180.535 44.272V14.96H166.775C166.306 14.96 165.9 14.7893 165.559 14.448C165.218 14.1067 165.047 13.7013 165.047 13.232V2.928C165.047 2.45867 165.218 2.05333 165.559 1.712C165.9 1.37066 166.306 1.2 166.775 1.2ZM18.6869 75.024H27.3269C31.6149 75.024 34.9269 75.952 37.2629 77.808C39.6309 79.632 40.8149 82.176 40.8149 85.44C40.8149 88.704 39.6309 91.28 37.2629 93.168C34.8949 95.056 31.5669 96 27.2789 96H7.50288C7.15088 96 6.84688 95.872 6.59088 95.616C6.33488 95.36 6.20688 95.056 6.20688 94.704V63.696C6.20688 63.344 6.33488 63.04 6.59088 62.784C6.84688 62.528 7.15088 62.4 7.50288 62.4H35.7269C36.0789 62.4 36.3829 62.528 36.6389 62.784C36.8949 63.04 37.0229 63.344 37.0229 63.696V70.416C37.0229 70.768 36.8949 71.072 36.6389 71.328C36.3829 71.584 36.0789 71.712 35.7269 71.712H18.6869V75.024ZM18.6869 83.04V87.744H25.6469C26.3829 87.744 26.9269 87.504 27.2789 87.024C27.6629 86.512 27.8549 85.952 27.8549 85.344V85.296C27.8549 84.688 27.6469 84.16 27.2309 83.712C26.8469 83.264 26.3189 83.04 25.6469 83.04H18.6869ZM82.1241 76.272V82.128C82.1241 85.424 81.3241 88.176 79.7241 90.384C78.1241 92.592 76.0281 94.16 73.4361 95.088C70.8441 96.016 67.7881 96.48 64.2681 96.48C60.7481 96.48 57.6921 96.016 55.1001 95.088C52.5081 94.16 50.4121 92.592 48.8121 90.384C47.2121 88.176 46.4121 85.392 46.4121 82.032V76.368C46.4121 71.536 48.0601 67.92 51.3561 65.52C54.6841 63.12 58.9881 61.92 64.2681 61.92C69.5481 61.92 73.8361 63.12 77.1321 65.52C80.4601 67.92 82.1241 71.504 82.1241 76.272ZM59.3721 75.36V83.04C59.3721 84.352 59.8041 85.36 60.6681 86.064C61.5641 86.768 62.7641 87.12 64.2681 87.12C65.7721 87.12 66.9561 86.768 67.8201 86.064C68.7161 85.328 69.1641 84.304 69.1641 82.992V75.408C69.1641 74.096 68.7161 73.088 67.8201 72.384C66.9561 71.648 65.7721 71.28 64.2681 71.28C62.7641 71.28 61.5641 71.632 60.6681 72.336C59.8041 73.04 59.3721 74.048 59.3721 75.36ZM92.9534 62.4H110.905C115.449 62.4 119.049 63.504 121.705 65.712C124.361 67.92 125.689 70.752 125.689 74.208C125.689 77.664 124.569 80.416 122.329 82.464C120.089 84.48 116.281 85.488 110.905 85.488H104.569V94.704C104.569 95.056 104.441 95.36 104.185 95.616C103.929 95.872 103.625 96 103.273 96H92.9534C92.6014 96 92.2974 95.872 92.0414 95.616C91.7854 95.36 91.6574 95.056 91.6574 94.704V63.696C91.6574 63.344 91.7854 63.04 92.0414 62.784C92.2974 62.528 92.6014 62.4 92.9534 62.4ZM104.617 71.328V76.608H110.713C111.449 76.608 112.041 76.384 112.489 75.936C112.969 75.488 113.209 74.864 113.209 74.064C113.209 73.264 112.985 72.608 112.537 72.096C112.089 71.584 111.481 71.328 110.713 71.328H104.617ZM132.439 62.4H141.367C141.719 62.4 142.023 62.528 142.279 62.784C142.535 63.04 142.663 63.344 142.663 63.696V77.808L153.127 63.36C153.607 62.72 154.231 62.4 154.999 62.4H162.775C163.127 62.4 163.431 62.528 163.687 62.784C163.943 63.04 164.071 63.344 164.071 63.696V94.704C164.071 95.056 163.943 95.36 163.687 95.616C163.431 95.872 163.127 96 162.775 96H153.847C153.495 96 153.191 95.872 152.935 95.616C152.679 95.36 152.551 95.056 152.551 94.704V81.648L142.087 94.992C141.575 95.664 140.935 96 140.167 96H132.439C132.087 96 131.783 95.872 131.527 95.616C131.271 95.36 131.143 95.056 131.143 94.704V63.696C131.143 63.344 131.271 63.04 131.527 62.784C131.783 62.528 132.087 62.4 132.439 62.4ZM185.076 75.36V83.04C185.076 84.352 185.508 85.36 186.372 86.064C187.268 86.768 188.42 87.12 189.828 87.12C191.268 87.12 192.308 86.896 192.948 86.448C193.588 86 194.116 85.344 194.532 84.48C194.98 83.616 195.556 83.184 196.26 83.184H206.628C206.916 83.184 207.156 83.296 207.348 83.52C207.572 83.712 207.684 83.952 207.684 84.24C207.684 87.216 206.276 89.936 203.46 92.4C202.052 93.616 200.18 94.608 197.844 95.376C195.508 96.112 192.756 96.48 189.588 96.48C186.42 96.48 183.524 96 180.9 95.04C178.308 94.048 176.196 92.448 174.564 90.24C172.932 88 172.116 85.264 172.116 82.032V76.368C172.116 73.136 172.932 70.4 174.564 68.16C177.636 64 182.772 61.92 189.972 61.92C192.884 61.92 195.508 62.304 197.844 63.072C200.18 63.808 202.052 64.784 203.46 66C206.276 68.464 207.684 71.184 207.684 74.16C207.684 74.448 207.572 74.704 207.348 74.928C207.156 75.12 206.916 75.216 206.628 75.216H196.26C195.556 75.216 194.98 74.784 194.532 73.92C194.116 73.056 193.588 72.4 192.948 71.952C192.308 71.504 191.268 71.28 189.828 71.28C188.42 71.28 187.268 71.632 186.372 72.336C185.508 73.04 185.076 74.048 185.076 75.36Z" fill="white"/>
</svg>
