<svg width="39" height="39" viewBox="0 0 39 39" fill="none" xmlns="http://www.w3.org/2000/svg">
<g clip-path="url(#clip0_147_731)">
<path d="M19.5 39C30.2696 39 39 30.2696 39 19.5C39 8.73045 30.2696 0 19.5 0C8.73045 0 0 8.73045 0 19.5C0 30.2696 8.73045 39 19.5 39Z" fill="#F6D738"/>
<path d="M19.5 36.0495C28.64 36.0495 36.0495 28.6401 36.0495 19.5C36.0495 10.36 28.64 2.9505 19.5 2.9505C10.36 2.9505 2.95049 10.36 2.95049 19.5C2.95049 28.6401 10.36 36.0495 19.5 36.0495Z" fill="#F3CC30"/>
<path d="M28.1586 5.37524C29.8633 8.03546 30.7671 11.1298 30.7621 14.2894C30.7621 23.4295 23.3527 30.8389 14.2126 30.8389C11.155 30.8437 8.1565 29.9973 5.55274 28.3945C7.04849 30.7368 9.11052 32.6643 11.5483 33.9988C13.986 35.3333 16.7209 36.0319 19.5 36.0299C28.6401 36.0299 36.052 28.6205 36.052 19.4803C36.0531 16.6503 35.328 13.8674 33.946 11.3977C32.564 8.92811 30.5713 6.85447 28.1586 5.37524Z" fill="#EDBD31"/>
<path d="M5.84939 21.0145C5.84939 12.9461 12.3903 6.40519 20.4587 6.40519C22.6972 6.40343 24.9061 6.917 26.9143 7.90611C28.9224 8.89522 30.6759 10.3333 32.039 12.109C30.7588 9.88107 28.9134 8.03036 26.6892 6.74376C24.4649 5.45716 21.9406 4.78023 19.371 4.78131C11.3008 4.78131 4.7623 11.3216 4.7623 19.39C4.75764 22.612 5.82285 25.7444 7.79079 28.2955C6.51528 26.0812 5.84567 23.5699 5.84939 21.0145Z" fill="#F7DB5E"/>
<path d="M20.8659 8.8183V10.9268C21.7123 11.0631 22.4044 11.3428 22.9424 11.7657C23.4805 12.1887 23.9923 12.8377 24.4779 13.7126L22.3805 14.8851C21.7491 13.7386 20.9245 13.1654 19.9066 13.1654C19.2752 13.1654 18.7515 13.3519 18.3355 13.7249C18.1352 13.8979 17.9755 14.1129 17.8677 14.3546C17.76 14.5963 17.7069 14.8588 17.7121 15.1234C17.7121 15.6323 17.8806 16.0553 18.2176 16.3923C18.5488 16.7239 19.2165 17.115 20.2204 17.5654C20.9587 17.893 21.6765 18.2648 22.37 18.6788C22.9371 19.0269 23.364 19.3622 23.6506 19.6849C24.4605 20.5594 24.8656 21.6171 24.866 22.8577C24.866 24.0774 24.5002 25.1533 23.7685 26.0852C23.0446 27.0101 22.0765 27.6339 20.8641 27.9565V30.1835H18.9835V28.0192C17.5783 27.7903 16.5061 27.3063 15.7671 26.5673C15.028 25.8282 14.483 24.6879 14.1321 23.1463L16.4985 22.6519C16.8216 23.7423 17.2161 24.5202 17.682 24.9858C18.1697 25.4305 18.8187 25.6528 19.629 25.6528C20.4176 25.6528 21.0774 25.3983 21.6085 24.8894C22.1317 24.3878 22.3934 23.7388 22.3934 22.9424C22.3934 22.2325 22.1747 21.6623 21.7374 21.232C21.5151 21.024 21.1875 20.7891 20.7548 20.5275C20.2171 20.2117 19.6622 19.9261 19.0928 19.672C17.7007 19.048 16.7864 18.4747 16.3499 17.9523C15.6538 17.1706 15.3058 16.2348 15.3058 15.1449C15.3008 14.6536 15.384 14.1653 15.5515 13.7034C15.7156 13.2604 15.958 12.8504 16.267 12.4929C16.5967 12.1164 16.9877 11.7982 17.4235 11.552C17.9127 11.2744 18.4372 11.0645 18.9829 10.928V8.8183H20.8659Z" fill="#D49A34"/>
</g>
<defs>
<clipPath id="clip0_147_731">
<rect width="39" height="39" fill="white"/>
</clipPath>
</defs>
</svg>
