<svg width="24" height="43" viewBox="0 0 24 43" fill="none" xmlns="http://www.w3.org/2000/svg">
<path d="M10.6343 26.2706H6.89188C3.04466 26.2706 1.12109 26.2706 0.315494 25.0474C-0.490104 23.8241 0.318034 22.1305 1.93431 18.7429L9.39502 3.10693C10.4171 0.964837 10.9279 -0.106211 11.4641 0.00830954C12 0.122856 12 1.30312 12 3.66368V15.4043C12 16.0289 12 16.3414 12.2 16.5354C12.3999 16.7294 12.722 16.7294 13.3658 16.7294H17.1082C20.9555 16.7294 22.879 16.7294 23.6845 17.9525C24.49 19.1759 23.6821 20.8695 22.0658 24.2569L14.6051 39.8929C13.5829 42.0352 13.0721 43.1062 12.536 42.9917C12 42.8772 12 41.6967 12 39.3364V27.5957C12 26.971 12 26.6586 11.8001 26.4646C11.6001 26.2706 11.2781 26.2706 10.6343 26.2706Z" fill="white"/>
</svg>
