<svg width="25" height="26" viewBox="0 0 25 26" fill="none" xmlns="http://www.w3.org/2000/svg">
<g opacity="0.6">
<path fill-rule="evenodd" clip-rule="evenodd" d="M22.0183 14.0892C22.0696 13.6786 22.1081 13.268 22.1081 12.8317C22.1081 12.3954 22.0696 11.9848 22.0183 11.5742L24.7258 9.45695C24.9696 9.26447 25.0338 8.91802 24.8798 8.63572L22.3134 4.19596C22.1595 3.91366 21.813 3.81101 21.5307 3.91366L18.3356 5.19683C17.6684 4.68356 16.9498 4.26012 16.1671 3.93933L15.6795 0.538931C15.641 0.230971 15.3715 0 15.0507 0H9.91803C9.59724 0 9.32777 0.230971 9.28928 0.538931L8.80167 3.93933C8.01894 4.26012 7.30037 4.69639 6.63312 5.19683L3.43803 3.91366C3.1429 3.79818 2.80928 3.91366 2.6553 4.19596L0.088964 8.63572C-0.0778479 8.91802 -0.000857388 9.26447 0.242945 9.45695L2.95043 11.5742C2.8991 11.9848 2.86061 12.4082 2.86061 12.8317C2.86061 13.2551 2.8991 13.6786 2.95043 14.0892L0.242945 16.2064C-0.000857388 16.3989 -0.0650162 16.7453 0.088964 17.0276L2.6553 21.4674C2.80928 21.7497 3.15574 21.8523 3.43803 21.7497L6.63312 20.4665C7.30037 20.9798 8.01894 21.4032 8.80167 21.724L9.28928 25.1244C9.32777 25.4324 9.59724 25.6634 9.91803 25.6634H15.0507C15.3715 25.6634 15.641 25.4324 15.6795 25.1244L16.1671 21.724C16.9498 21.4032 17.6684 20.967 18.3356 20.4665L21.5307 21.7497C21.8258 21.8652 22.1595 21.7497 22.3134 21.4674L24.8798 17.0276C25.0338 16.7453 24.9696 16.3989 24.7258 16.2064L22.0183 14.0892ZM12.4844 17.3228C10.0079 17.3228 7.99328 15.3082 7.99328 12.8317C7.99328 10.3552 10.0079 8.34059 12.4844 8.34059C14.9609 8.34059 16.9755 10.3552 16.9755 12.8317C16.9755 15.3082 14.9609 17.3228 12.4844 17.3228Z" fill="#F2F2F2"/>
</g>
</svg>
