<svg width="32" height="32" viewBox="0 0 32 32" fill="none" xmlns="http://www.w3.org/2000/svg">
<g opacity="0.35">
<rect width="32" height="32" rx="16" fill="white" fill-opacity="0.04"/>
<path d="M16.0616 24.5826C14.8885 24.5826 13.7845 24.3585 12.7496 23.9103C11.7148 23.4676 10.8017 22.8505 10.0104 22.0592C9.22457 21.2679 8.60754 20.3548 8.1593 19.3199C7.71106 18.2851 7.48694 17.1811 7.48694 16.0079C7.48694 14.8348 7.71106 13.7308 8.1593 12.6959C8.60754 11.6611 9.22457 10.7508 10.0104 9.96497C10.8017 9.17362 11.712 8.55383 12.7413 8.10559C13.7762 7.65735 14.8802 7.43323 16.0533 7.43323C17.2321 7.43323 18.3388 7.65735 19.3737 8.10559C20.4085 8.55383 21.3216 9.17362 22.1129 9.96497C22.9043 10.7508 23.524 11.6611 23.9723 12.6959C24.4205 13.7308 24.6447 14.8348 24.6447 16.0079C24.6447 17.1811 24.4205 18.2851 23.9723 19.3199C23.524 20.3548 22.9043 21.2679 22.1129 22.0592C21.3216 22.8505 20.4085 23.4676 19.3737 23.9103C18.3388 24.3585 17.2348 24.5826 16.0616 24.5826ZM16.0616 22.8893C17.019 22.8893 17.9127 22.7122 18.7428 22.358C19.5729 22.0039 20.3033 21.5114 20.9342 20.8805C21.5651 20.2496 22.0576 19.5192 22.4117 18.6891C22.7659 17.859 22.943 16.9653 22.943 16.0079C22.943 15.0561 22.7659 14.1652 22.4117 13.3351C22.0576 12.4995 21.5651 11.7662 20.9342 11.1354C20.3033 10.5045 19.5701 10.012 18.7345 9.65784C17.9044 9.30367 17.0107 9.12659 16.0533 9.12659C15.1015 9.12659 14.2078 9.30367 13.3722 9.65784C12.5421 10.012 11.8144 10.5045 11.1891 11.1354C10.5638 11.7662 10.074 12.4995 9.71985 13.3351C9.36568 14.1652 9.1886 15.0561 9.1886 16.0079C9.1886 16.9653 9.36568 17.859 9.71985 18.6891C10.074 19.5192 10.5638 20.2496 11.1891 20.8805C11.8199 21.5114 12.5504 22.0039 13.3805 22.358C14.2161 22.7122 15.1098 22.8893 16.0616 22.8893ZM15.879 17.6598C15.3533 17.6598 15.0905 17.4246 15.0905 16.9542C15.0905 16.9376 15.0905 16.921 15.0905 16.9044C15.0905 16.8878 15.0905 16.874 15.0905 16.8629C15.0905 16.4811 15.1845 16.1712 15.3727 15.9332C15.5664 15.6953 15.8126 15.4739 16.1115 15.2692C16.4656 15.0257 16.7285 14.8182 16.9 14.6466C17.0771 14.4751 17.1656 14.2592 17.1656 13.9991C17.1656 13.7169 17.0605 13.4873 16.8502 13.3102C16.6455 13.1276 16.3743 13.0363 16.0367 13.0363C15.8707 13.0363 15.7158 13.0639 15.5719 13.1193C15.4336 13.1746 15.3035 13.2548 15.1818 13.36C15.0656 13.4596 14.9604 13.5841 14.8663 13.7335L14.7335 13.9078C14.656 14.013 14.562 14.096 14.4513 14.1569C14.3462 14.2177 14.2189 14.2482 14.0695 14.2482C13.8979 14.2482 13.7457 14.1901 13.6129 14.0739C13.4801 13.9576 13.4137 13.7999 13.4137 13.6007C13.4137 13.5232 13.4192 13.4513 13.4303 13.3849C13.4469 13.3129 13.469 13.241 13.4967 13.1691C13.624 12.7817 13.9173 12.4469 14.3766 12.1647C14.8414 11.8824 15.4308 11.7413 16.1447 11.7413C16.6316 11.7413 17.0799 11.8271 17.4894 11.9987C17.9044 12.1702 18.2365 12.4165 18.4855 12.7374C18.7345 13.0584 18.859 13.4485 18.859 13.9078C18.859 14.3948 18.7345 14.7794 18.4855 15.0616C18.242 15.3439 17.9183 15.6206 17.5143 15.8917C17.2376 16.0688 17.0273 16.2376 16.8834 16.3981C16.7395 16.5586 16.6621 16.7467 16.651 16.9625C16.651 16.9736 16.651 16.9902 16.651 17.0123C16.651 17.0289 16.6482 17.0455 16.6427 17.0621C16.6316 17.2281 16.5569 17.3693 16.4186 17.4855C16.2858 17.6017 16.1059 17.6598 15.879 17.6598ZM15.8624 20.2081C15.5968 20.2081 15.3671 20.1224 15.1735 19.9508C14.9853 19.7737 14.8912 19.5551 14.8912 19.295C14.8912 19.035 14.9853 18.8191 15.1735 18.6476C15.3616 18.4705 15.5913 18.382 15.8624 18.382C16.1336 18.382 16.3632 18.4677 16.5514 18.6393C16.7395 18.8108 16.8336 19.0294 16.8336 19.295C16.8336 19.5607 16.7395 19.7793 16.5514 19.9508C16.3632 20.1224 16.1336 20.2081 15.8624 20.2081Z" fill="white" fill-opacity="0.8"/>
</g>
</svg>
