<svg width="45" height="45" viewBox="0 0 45 45" fill="none" xmlns="http://www.w3.org/2000/svg">
<path d="M24.4275 3.75C26.5368 3.75563 27.6075 3.76688 28.5318 3.79313L28.8956 3.80625C29.3156 3.82125 29.73 3.84 30.2306 3.8625C32.2256 3.95625 33.5868 4.27125 34.7812 4.73438C36.0187 5.21063 37.0612 5.85562 38.1037 6.89625C39.0575 7.83325 39.7953 8.96714 40.2656 10.2187C40.7287 11.4131 41.0437 12.7744 41.1375 14.7712C41.16 15.27 41.1787 15.6844 41.1937 16.1063L41.205 16.47C41.2331 17.3925 41.2443 18.4631 41.2481 20.5725L41.25 21.9713V24.4275C41.2545 25.7951 41.2402 27.1628 41.2068 28.53L41.1956 28.8937C41.1806 29.3156 41.1618 29.73 41.1393 30.2288C41.0456 32.2256 40.7268 33.585 40.2656 34.7812C39.7953 36.0329 39.0575 37.1668 38.1037 38.1038C37.1667 39.0576 36.0328 39.7953 34.7812 40.2656C33.5868 40.7288 32.2256 41.0438 30.2306 41.1375L28.8956 41.1937L28.5318 41.205C27.6075 41.2313 26.5368 41.2444 24.4275 41.2481L23.0287 41.25H20.5743C19.2061 41.2548 17.8378 41.2404 16.47 41.2069L16.1062 41.1956C15.6611 41.1788 15.2161 41.1594 14.7712 41.1375C12.7762 41.0438 11.415 40.7288 10.2187 40.2656C8.96777 39.7951 7.83455 39.0573 6.89809 38.1038C5.94362 37.1669 5.20517 36.033 4.73434 34.7812C4.27122 33.5869 3.95622 32.2256 3.86247 30.2288L3.80622 28.8937L3.79684 28.53C3.76228 27.1628 3.74665 25.7952 3.74997 24.4275V20.5725C3.74478 19.2049 3.75853 17.8372 3.79122 16.47L3.80434 16.1063C3.81934 15.6844 3.83809 15.27 3.86059 14.7712C3.95434 12.7744 4.26934 11.415 4.73247 10.2187C5.20439 8.96662 5.94414 7.83269 6.89997 6.89625C7.83588 5.9429 8.96844 5.20514 10.2187 4.73438C11.415 4.27125 12.7743 3.95625 14.7712 3.8625C15.27 3.84 15.6862 3.82125 16.1062 3.80625L16.47 3.795C17.8372 3.76169 19.2048 3.74731 20.5725 3.75187L24.4275 3.75ZM22.5 13.125C20.0136 13.125 17.629 14.1127 15.8708 15.8709C14.1127 17.629 13.125 20.0136 13.125 22.5C13.125 24.9864 14.1127 27.371 15.8708 29.1291C17.629 30.8873 20.0136 31.875 22.5 31.875C24.9864 31.875 27.3709 30.8873 29.1291 29.1291C30.8872 27.371 31.875 24.9864 31.875 22.5C31.875 20.0136 30.8872 17.629 29.1291 15.8709C27.3709 14.1127 24.9864 13.125 22.5 13.125ZM22.5 16.875C23.2387 16.8749 23.9701 17.0203 24.6526 17.3028C25.3351 17.5854 25.9553 17.9996 26.4777 18.5219C27.0001 19.0441 27.4146 19.6641 27.6974 20.3465C27.9802 21.0289 28.1258 21.7604 28.1259 22.4991C28.126 23.2377 27.9807 23.9692 27.6981 24.6517C27.4155 25.3342 27.0013 25.9544 26.479 26.4768C25.9568 26.9992 25.3368 27.4137 24.6544 27.6965C23.972 27.9793 23.2405 28.1249 22.5018 28.125C21.01 28.125 19.5793 27.5324 18.5244 26.4775C17.4695 25.4226 16.8768 23.9918 16.8768 22.5C16.8768 21.0082 17.4695 19.5774 18.5244 18.5225C19.5793 17.4676 21.01 16.875 22.5018 16.875M32.3456 10.3125C31.724 10.3125 31.1278 10.5594 30.6883 10.999C30.2488 11.4385 30.0018 12.0346 30.0018 12.6562C30.0018 13.2779 30.2488 13.874 30.6883 14.3135C31.1278 14.7531 31.724 15 32.3456 15C32.9672 15 33.5633 14.7531 34.0029 14.3135C34.4424 13.874 34.6893 13.2779 34.6893 12.6562C34.6893 12.0346 34.4424 11.4385 34.0029 10.999C33.5633 10.5594 32.9672 10.3125 32.3456 10.3125Z" fill="#CDA6FF"/>
</svg>
