<svg width="40" height="50" viewBox="0 0 40 50" fill="none" xmlns="http://www.w3.org/2000/svg">
<path fill-rule="evenodd" clip-rule="evenodd" d="M28.3146 8.5394H5.39326C3.90395 8.5394 2.69663 9.74672 2.69663 11.236V44.4945C2.69663 45.9838 3.90395 47.1911 5.39326 47.1911H28.3146C29.8039 47.1911 31.0112 45.9838 31.0112 44.4945V11.236C31.0112 9.74672 29.8039 8.5394 28.3146 8.5394ZM5.39326 5.84277C2.41464 5.84277 0 8.25742 0 11.236V44.4945C0 47.4731 2.41464 49.8877 5.39326 49.8877H28.3146C31.2932 49.8877 33.7079 47.4731 33.7079 44.4945V11.236C33.7079 8.25742 31.2932 5.84277 28.3146 5.84277H5.39326Z" fill="black"/>
<path fill-rule="evenodd" clip-rule="evenodd" d="M11.6854 2.69663H34.6067C36.096 2.69663 37.3033 3.90395 37.3033 5.39326V38.6517C37.3033 40.141 36.096 41.3483 34.6067 41.3483H31.9101V44.0449H34.6067C37.5853 44.0449 40 41.6303 40 38.6517V5.39326C40 2.41464 37.5853 0 34.6067 0H11.6854C8.70676 0 6.29211 2.41464 6.29211 5.39326V6.29213H8.98874V5.39326C8.98874 3.90395 10.1961 2.69663 11.6854 2.69663Z" fill="black"/>
</svg>
