<svg width="35" height="34" viewBox="0 0 35 34" fill="none" xmlns="http://www.w3.org/2000/svg">
<path fill-rule="evenodd" clip-rule="evenodd" d="M17.0889 20.503C20.8866 20.503 23.9653 17.4395 23.9653 13.6603C23.9653 9.88121 20.8866 6.81763 17.0889 6.81763C13.2911 6.81763 10.2124 9.88121 10.2124 13.6603C10.2124 17.4395 13.2911 20.503 17.0889 20.503ZM17.0443 32.7249C23.5708 32.7249 28.8616 29.2538 28.8616 26.3617C28.8616 23.4696 23.5708 22.2517 17.0443 22.2517C10.5177 22.2517 5.45416 23.4696 5.45416 26.3617C5.45416 29.2538 10.5177 32.7249 17.0443 32.7249Z" fill="black"/>
<path fill-rule="evenodd" clip-rule="evenodd" d="M33.5432 15.0715C33.8443 17.9568 33.3952 20.8876 32.2174 23.5726C30.6706 27.0987 27.9607 29.9872 24.5403 31.7556C21.1199 33.5239 17.1963 34.065 13.425 33.2883C9.65366 32.5117 6.26308 30.4644 3.8197 27.4885C1.37632 24.5126 0.0281537 20.7884 0.000436062 16.9381C-0.0272816 13.0877 1.26713 9.34445 3.66741 6.33369C6.06769 3.32294 9.42846 1.22705 13.1882 0.396199C16.0511 -0.236464 19.0133 -0.106453 21.7848 0.750493C22.652 1.01862 23.5005 1.3579 24.3214 1.76726C24.3224 1.76776 24.3234 1.76826 24.3244 1.76876L23.5992 3.22234C20.4866 1.66946 16.9353 1.23176 13.5387 1.98236C10.1421 2.73295 7.10601 4.62639 4.93759 7.34632C2.76916 10.0663 1.59978 13.4479 1.62482 16.9264C1.64986 20.4048 2.86781 23.7693 5.07517 26.4577C7.28253 29.1461 10.3456 30.9957 13.7526 31.6973C17.1597 32.3989 20.7043 31.9101 23.7943 30.3126C26.8842 28.7151 29.3324 26.1056 30.7298 22.9201C32.1272 19.7346 32.3891 16.166 31.4718 12.8106L33.0387 12.3822C33.2809 13.2682 33.4488 14.1676 33.5432 15.0715Z" fill="black"/>
<path d="M23.6347 6.36328H34.543V7.27231H23.6347V6.36328Z" fill="black"/>
<path fill-rule="evenodd" clip-rule="evenodd" d="M23.4075 6.13599H34.7703V7.49953H23.4075V6.13599ZM23.862 6.5905V7.04501H34.3158V6.5905H23.862Z" fill="black"/>
<path d="M29.5433 1.36353L29.5433 12.2718L28.6343 12.2718L28.6343 1.36353L29.5433 1.36353Z" fill="black"/>
<path fill-rule="evenodd" clip-rule="evenodd" d="M29.7706 1.13623L29.7706 12.4991L28.4071 12.4991L28.4071 1.13623L29.7706 1.13623ZM29.3161 1.59074L28.8616 1.59074L28.8616 12.0445L29.3161 12.0445L29.3161 1.59074Z" fill="black"/>
</svg>
