<svg width="25" height="25" viewBox="0 0 25 25" fill="none" xmlns="http://www.w3.org/2000/svg">
<path opacity="0.4" fill-rule="evenodd" clip-rule="evenodd" d="M3.55957 20.6787C8.28689 25.406 15.9514 25.406 20.6787 20.6787C25.406 15.9514 25.406 8.28689 20.6787 3.55957C15.9514 -1.16775 8.28689 -1.16775 3.55957 3.55957C-1.16775 8.28689 -1.16775 15.9514 3.55957 20.6787ZM19.0637 5.17458C18.6177 4.72861 17.8947 4.72861 17.4487 5.17458L12.4421 10.1811L7.1126 4.85158C6.66663 4.4056 5.94356 4.4056 5.49759 4.85158C5.05161 5.29755 5.05161 6.02062 5.49759 6.46659L10.8271 11.7961L5.17458 17.4487C4.72861 17.8947 4.72861 18.6177 5.17458 19.0637C5.62056 19.5097 6.34362 19.5097 6.7896 19.0637L12.4421 13.4111L17.7717 18.7407C18.2177 19.1867 18.9407 19.1867 19.3867 18.7407C19.8327 18.2947 19.8327 17.5717 19.3867 17.1257L14.0572 11.7961L19.0637 6.78959C19.5097 6.34362 19.5097 5.62055 19.0637 5.17458Z" fill="white"/>
</svg>
