<svg width="18" height="21" viewBox="0 0 18 21" fill="none" xmlns="http://www.w3.org/2000/svg">
<path d="M4.72595 18.5679C4.47212 18.4071 4.47451 18.036 4.73039 17.8785L11.2412 13.871C12.1283 13.325 12.6687 12.3579 12.6687 11.3162V9.39573C12.6687 8.82137 12.3703 8.28827 11.8807 7.98798C10.839 7.3491 10.8279 5.83944 11.86 5.18531L13.0595 4.42517C13.8852 3.90186 14.9382 3.89959 15.7661 4.41932L16.0949 4.6257C16.9693 5.17452 17.5 6.13431 17.5 7.1666V14.276C17.5 15.3193 16.958 16.2877 16.0687 16.8332L10.5522 20.2174C9.58967 20.8079 8.37716 20.8079 7.41467 20.2174L4.72595 18.5679ZM13.274 2.79167C13.5279 2.95245 13.5255 3.32357 13.2696 3.48106L6.75879 7.48854C5.87168 8.03457 5.33132 9.00169 5.33132 10.0434V11.9639C5.33132 12.5382 5.62974 13.0713 6.11935 13.3716C7.16101 14.0105 7.17211 15.5202 6.13995 16.1743L4.94051 16.9344C4.11478 17.4577 3.06183 17.46 2.23385 16.9403L1.90506 16.7339C1.03074 16.1851 0.5 15.2253 0.5 14.193V7.08282C0.5 6.03947 1.04208 5.07105 1.93146 4.52554L7.4479 1.14197C8.41036 0.551628 9.62278 0.551682 10.5852 1.14211L13.274 2.79167ZM9 13.7423C8.2307 13.7407 7.49334 13.4175 6.94936 12.8435C6.40538 12.2695 6.09909 11.4915 6.09756 10.6798C6.09756 8.99279 7.40117 7.61729 9 7.61729C10.5988 7.61729 11.9024 8.99279 11.9024 10.6798C11.9024 12.3668 10.5988 13.7423 9 13.7423Z" fill="white"/>
</svg>
