<svg width="18" height="22" viewBox="0 0 18 22" fill="none" xmlns="http://www.w3.org/2000/svg">
<path d="M4.48098 0.243864C4.11527 0.353013 3.65126 0.884227 3.52459 1.33536C3.31365 2.07034 3.41912 2.81273 3.89717 3.83868C4.43168 4.99572 5.23331 5.83272 6.35134 6.40041L6.66975 6.56509C6.81175 6.63853 6.96928 6.67685 7.12913 6.67685H8.61577H10.1024C10.2623 6.67685 10.4198 6.63853 10.5618 6.56509L10.8802 6.40041C11.9982 5.83272 12.7999 4.996 13.3344 3.83868C13.9953 2.41973 13.9744 1.35702 13.2854 0.643983C12.9337 0.280056 12.5399 0.119895 12.1602 0.199976C11.7452 0.280057 11.0983 0.803861 10.5007 1.53912C9.92409 2.24503 8.91842 3.75859 8.75677 4.16612C8.64414 4.44256 8.58796 4.44256 8.47561 4.16612C8.15204 3.35106 6.45736 1.07317 5.84575 0.614916C5.26856 0.185727 4.96619 0.105646 4.48098 0.243864ZM5.35282 1.99767C6.14729 2.87086 6.89273 3.95523 7.34298 4.87232C7.46249 5.11969 7.56108 5.3454 7.56108 5.36705C7.56108 5.46167 7.32205 5.38159 6.80159 5.11228C6.36566 4.88657 6.13352 4.70475 5.80307 4.3337C5.10691 3.5477 4.63574 2.38354 4.77646 1.80844C4.83952 1.532 4.96619 1.5756 5.35282 1.99767ZM12.4551 1.80844C12.5396 2.14329 12.4198 2.65997 12.1246 3.2858C11.7308 4.1154 11.084 4.79224 10.3526 5.15617C10.0574 5.29438 9.77594 5.40353 9.71976 5.389C9.59309 5.35993 10.1488 4.30463 10.7745 3.38042C11.2878 2.63803 12.1737 1.61921 12.3144 1.61921C12.3637 1.61921 12.4342 1.7067 12.4551 1.80844Z" fill="white"/>
<path d="M0.822266 7.6513V8.92538C0.822266 9.47767 1.26998 9.92538 1.82227 9.92538H4.72051H7.61875C8.17103 9.92538 8.61875 9.47767 8.61875 8.92538V7.6513V6.37744C8.61875 5.82515 8.17103 5.37744 7.61875 5.37744H4.7207H1.82227C1.26998 5.37744 0.822266 5.82515 0.822266 6.37744V7.6513Z" fill="white"/>
<path d="M9.26837 7.6513V8.92538C9.26837 9.47767 9.71609 9.92538 10.2684 9.92538H13.1666H16.0649C16.6171 9.92538 17.0649 9.47767 17.0649 8.92538V7.6513V6.37744C17.0649 5.82515 16.6171 5.37744 16.0649 5.37744H13.1666H10.2684C9.71609 5.37744 9.26837 5.82515 9.26837 6.37744V7.6513Z" fill="white"/>
<path d="M0.707581 15.8489V20.1798C0.707581 20.7321 1.1553 21.1798 1.70758 21.1798H4.5718H7.43602C7.9883 21.1798 8.43602 20.7321 8.43602 20.1798V15.8489V11.5181C8.43602 10.9658 7.9883 10.5181 7.43602 10.5181H4.5718H1.70758C1.1553 10.5181 0.707581 10.9658 0.707581 11.5181V15.8489Z" fill="white"/>
<path d="M9.45132 15.8489V20.1798C9.45132 20.7321 9.89904 21.1798 10.4513 21.1798H13.3719H16.2924C16.8447 21.1798 17.2924 20.7321 17.2924 20.1798V15.8489V11.5181C17.2924 10.9658 16.8447 10.5181 16.2924 10.5181H13.3721H10.4513C9.89904 10.5181 9.45132 10.9658 9.45132 11.5181V15.8489Z" fill="white"/>
</svg>
