<svg width="23" height="21" viewBox="0 0 23 21" fill="none" xmlns="http://www.w3.org/2000/svg">
<path fill-rule="evenodd" clip-rule="evenodd" d="M21.1881 8.78052C20.6953 9.05429 20.0737 8.86679 19.8145 8.36617L19.5589 7.87251C19.2887 7.35077 19.5244 6.70966 20.0682 6.48716L20.9707 6.11791C21.6663 5.83329 22.4155 6.389 22.345 7.13726L22.2949 7.66865C22.2639 7.99693 22.0732 8.28886 21.7849 8.44899L21.1881 8.78052ZM18.7574 8.89314C19.062 9.59069 18.5067 10.3593 17.7488 10.2891L13.7083 9.91493C13.397 9.8861 13.0901 10.0045 12.8789 10.235L4.87778 18.9651C2.81341 21.3943 -0.877512 18.1495 1.03158 15.9572L7.69871 9.3795C8.08495 8.99843 8.09685 8.37888 7.72553 7.98327L4.64945 4.70595C4.47257 4.5175 4.2296 4.40485 3.97149 4.39162L3.70134 4.37778C3.36204 4.36039 3.05477 4.17192 2.88549 3.87734L1.98392 2.30847C1.74225 1.88794 1.8372 1.35461 2.20917 1.04333L2.6232 0.696842C2.98386 0.395025 3.50608 0.385289 3.87773 0.673452L5.33573 1.80392C5.60406 2.01197 5.74849 2.34197 5.71927 2.68025L5.70812 2.80936C5.6835 3.09436 5.78212 3.37625 5.97902 3.58375L8.94338 6.70769C9.32885 7.11391 9.97273 7.12444 10.3713 6.73104L11.2084 5.90474C11.3057 5.80863 11.3823 5.69356 11.4335 5.56665L13.1764 1.23914C13.3194 0.884052 13.6526 0.641764 14.0344 0.615153L19.2646 0.250696C19.6462 0.224103 20.0096 0.417547 20.2006 0.748993L20.2927 0.908869C20.5801 1.40762 20.3881 2.04543 19.8732 2.30271L17.4441 3.51639C16.968 3.75427 16.7616 4.32342 16.9746 4.81117L18.7574 8.89314ZM4.16123 16.1418C4.16165 16.1418 4.16182 16.1412 4.16149 16.1409C2.88888 15.1002 1.21776 16.9377 2.5665 18.0472C3.79562 19.0596 5.41909 17.1803 4.16097 16.1426C4.16064 16.1423 4.1608 16.1418 4.16123 16.1418ZM15.086 11.3811C15.3645 11.3712 15.6336 11.4771 15.8304 11.6744C16.6414 12.4873 18.8727 14.7146 20.2829 16.032C22.4415 18.0522 18.0964 21.6188 16.088 19.5611C14.9429 18.3961 12.9391 15.8935 12.0081 14.714C11.7146 14.3422 11.7263 13.8156 12.0333 13.4549L13.4732 11.7635C13.6552 11.5497 13.9187 11.4223 14.1993 11.4124L15.086 11.3811Z" fill="white"/>
</svg>
