<svg width="25" height="21" viewBox="0 0 25 21" fill="none" xmlns="http://www.w3.org/2000/svg">
<path d="M0.80986 17.7587C0.80986 16.4415 1.8777 15.3736 3.19495 15.3736H13.363V20.1438H3.19495C1.8777 20.1438 0.80986 19.076 0.80986 17.7587Z" fill="white"/>
<path d="M0.80986 10.2269C0.80986 8.90962 1.8777 7.84178 3.19495 7.84178H18.3842V12.612H3.19495C1.8777 12.612 0.80986 11.5441 0.80986 10.2269Z" fill="white"/>
<path d="M0.809769 2.69489C0.809769 1.37764 1.87761 0.309799 3.19486 0.309799H7.58845V5.07999H3.19486C1.87761 5.07999 0.809769 4.01214 0.809769 2.69489Z" fill="white"/>
<path fill-rule="evenodd" clip-rule="evenodd" d="M0.5 17.2331C0.5 16.035 1.47124 15.0637 2.66934 15.0637H22.3307C23.5288 15.0637 24.5 16.035 24.5 17.2331V18.1902C24.5 19.3883 23.5288 20.3596 22.3307 20.3596H2.66933C1.47124 20.3596 0.5 19.3883 0.5 18.1902V17.2331ZM2.66934 15.6835C1.81356 15.6835 1.11981 16.3773 1.11981 17.2331V18.1902C1.11981 19.046 1.81356 19.7398 2.66933 19.7398H22.3307C23.1864 19.7398 23.8802 19.046 23.8802 18.1902V17.2331C23.8802 16.3773 23.1864 15.6835 22.3307 15.6835H2.66934Z" fill="white"/>
<path fill-rule="evenodd" clip-rule="evenodd" d="M0.5 9.70121C0.5 8.50312 1.47124 7.53188 2.66934 7.53188H22.3307C23.5288 7.53188 24.5 8.50312 24.5 9.70121V10.6584C24.5 11.8565 23.5288 12.8277 22.3307 12.8277H2.66933C1.47124 12.8277 0.5 11.8565 0.5 10.6584V9.70121ZM2.66934 8.15169C1.81356 8.15169 1.11981 8.84543 1.11981 9.70121V10.6584C1.11981 11.5142 1.81356 12.2079 2.66933 12.2079H22.3307C23.1864 12.2079 23.8802 11.5142 23.8802 10.6584V9.70121C23.8802 8.84543 23.1864 8.15169 22.3307 8.15169H2.66934Z" fill="white"/>
<path fill-rule="evenodd" clip-rule="evenodd" d="M0.5 2.16934C0.5 0.971247 1.47124 0 2.66934 0H22.3307C23.5288 0 24.5 0.971246 24.5 2.16934V3.12651C24.5 4.3246 23.5288 5.29585 22.3307 5.29585H2.66933C1.47124 5.29585 0.5 4.3246 0.5 3.12651V2.16934ZM2.66934 0.61981C1.81356 0.61981 1.11981 1.31356 1.11981 2.16934V3.12651C1.11981 3.98229 1.81356 4.67604 2.66933 4.67604H22.3307C23.1864 4.67604 23.8802 3.98229 23.8802 3.12651V2.16934C23.8802 1.31356 23.1864 0.61981 22.3307 0.61981H2.66934Z" fill="white"/>
</svg>
