<svg width="129" height="129" viewBox="0 0 129 129" fill="none" xmlns="http://www.w3.org/2000/svg">
<g filter="url(#filter0_d_46_356)">
<rect x="33" y="33" width="63" height="63" rx="31.5" fill="#151515"/>
<rect x="33.4091" y="33.4091" width="62.1818" height="62.1818" rx="31.0909" stroke="#CDA6FF" stroke-width="0.818182"/>
<g clip-path="url(#clip0_46_356)">
<path fill-rule="evenodd" clip-rule="evenodd" d="M64.9091 66.5505L71.0558 72.6972C71.382 73.0233 71.8243 73.2066 72.2856 73.2066C72.7469 73.2066 73.1892 73.0233 73.5154 72.6972C73.8416 72.371 74.0248 71.9286 74.0248 71.4674C74.0248 71.0061 73.8416 70.5637 73.5154 70.2376L67.3664 64.0909L73.5142 57.9443C73.6757 57.7828 73.8037 57.5911 73.891 57.3801C73.9784 57.1691 74.0233 56.943 74.0232 56.7146C74.0232 56.4863 73.9781 56.2602 73.8907 56.0493C73.8033 55.8383 73.6752 55.6467 73.5137 55.4853C73.3522 55.3238 73.1604 55.1958 72.9495 55.1085C72.7385 55.0211 72.5124 54.9762 72.284 54.9763C72.0557 54.9763 71.8296 55.0214 71.6187 55.1088C71.4077 55.1962 71.2161 55.3243 71.0546 55.4858L64.9091 61.6325L58.7625 55.4858C58.6022 55.3197 58.4104 55.1872 58.1983 55.0959C57.9862 55.0047 57.7581 54.9567 57.5273 54.9545C57.2964 54.9524 57.0674 54.9963 56.8537 55.0836C56.64 55.171 56.4458 55.3 56.2825 55.4631C56.1192 55.6263 55.99 55.8204 55.9025 56.034C55.815 56.2476 55.7709 56.4765 55.7728 56.7074C55.7747 56.9382 55.8225 57.1664 55.9135 57.3786C56.0046 57.5907 56.1369 57.7826 56.3029 57.9431L62.4519 64.0909L56.3041 70.2387C56.1381 70.3992 56.0057 70.5911 55.9147 70.8033C55.8237 71.0154 55.7758 71.2436 55.7739 71.4745C55.772 71.7053 55.8161 71.9342 55.9036 72.1479C55.9912 72.3615 56.1204 72.5556 56.2837 72.7187C56.447 72.8819 56.6412 73.0109 56.8549 73.0982C57.0686 73.1855 57.2976 73.2294 57.5284 73.2273C57.7593 73.2252 57.9874 73.1771 58.1995 73.0859C58.4116 72.9947 58.6033 72.8622 58.7636 72.696L64.9091 66.5505Z" fill="white"/>
</g>
</g>
<defs>
<filter id="filter0_d_46_356" x="0.272728" y="0.272728" width="128.455" height="128.455" filterUnits="userSpaceOnUse" color-interpolation-filters="sRGB">
<feFlood flood-opacity="0" result="BackgroundImageFix"/>
<feColorMatrix in="SourceAlpha" type="matrix" values="0 0 0 0 0 0 0 0 0 0 0 0 0 0 0 0 0 0 127 0" result="hardAlpha"/>
<feOffset/>
<feGaussianBlur stdDeviation="16.3636"/>
<feComposite in2="hardAlpha" operator="out"/>
<feColorMatrix type="matrix" values="0 0 0 0 0.804 0 0 0 0 0.65 0 0 0 0 1 0 0 0 1 0"/>
<feBlend mode="normal" in2="BackgroundImageFix" result="effect1_dropShadow_46_356"/>
<feBlend mode="normal" in="SourceGraphic" in2="effect1_dropShadow_46_356" result="shape"/>
</filter>
<clipPath id="clip0_46_356">
<rect width="27.8182" height="27.8182" fill="white" transform="translate(51 50.1818)"/>
</clipPath>
</defs>
</svg>
