<svg width="37" height="37" viewBox="0 0 37 37" fill="none" xmlns="http://www.w3.org/2000/svg">
<path fill-rule="evenodd" clip-rule="evenodd" d="M18.5 3.00033C16.0343 3.00033 13.9962 3.21749 12.4275 3.48186L12.2468 3.51288C10.8845 3.74083 9.75144 3.93101 8.86526 5.02086C8.29874 5.7209 8.11395 6.47759 8.07214 7.3206L7.40851 7.54181C6.784 7.74953 6.23502 7.93297 5.80205 8.13529C5.33265 8.3538 4.90237 8.63435 4.57326 9.09161C4.24414 9.54751 4.1133 10.0452 4.05395 10.5591C4 11.0353 4 11.6112 4 12.2708V12.4664C4 13.0086 4 13.4874 4.04047 13.888C4.08363 14.321 4.1794 14.7432 4.41814 15.1505C4.65958 15.5592 4.9806 15.8479 5.3394 16.096C5.66986 16.3253 6.088 16.5587 6.56279 16.8217L10.1237 18.8004C10.8521 20.2315 11.8516 21.5075 13.226 22.4288C14.4225 23.2327 15.859 23.7371 17.5599 23.8706C17.5126 23.9895 17.4883 24.1163 17.4884 24.2443V26.6047H15.5595C15.0138 26.6047 14.485 26.7938 14.063 27.1398C13.641 27.4858 13.3519 27.9674 13.2449 28.5025L12.9495 29.9768H10.407C10.1387 29.9768 9.88136 30.0833 9.69165 30.2731C9.50193 30.4628 9.39535 30.7201 9.39535 30.9884C9.39535 31.2567 9.50193 31.514 9.69165 31.7037C9.88136 31.8934 10.1387 32 10.407 32H26.593C26.8613 32 27.1186 31.8934 27.3084 31.7037C27.4981 31.514 27.6047 31.2567 27.6047 30.9884C27.6047 30.7201 27.4981 30.4628 27.3084 30.2731C27.1186 30.0833 26.8613 29.9768 26.593 29.9768H24.0505L23.7551 28.5025C23.6481 27.9674 23.359 27.4858 22.937 27.1398C22.515 26.7938 21.9862 26.6047 21.4405 26.6047H19.5116V24.2443C19.5117 24.1163 19.4874 23.9895 19.4401 23.8706C21.141 23.7358 22.5775 23.2327 23.774 22.4301C25.1498 21.5075 26.1479 20.2315 26.8763 18.8004L30.4372 16.8217C30.912 16.5587 31.3301 16.3253 31.6606 16.096C32.018 15.8479 32.3404 15.5592 32.5805 15.1519C32.8206 14.7432 32.9177 14.321 32.9595 13.888C33 13.4874 33 13.0086 33 12.4664V12.2708C33 11.6126 33 11.0353 32.946 10.5591C32.8867 10.0452 32.7572 9.54751 32.4267 9.09161C32.0976 8.63435 31.6674 8.3538 31.1993 8.13394C30.7636 7.93162 30.216 7.74953 29.5915 7.54181L28.9279 7.3206C28.8874 6.47624 28.7026 5.7209 28.1347 5.02086C27.2499 3.92966 26.1169 3.73948 24.7546 3.51288L24.5725 3.48186C22.5652 3.15281 20.534 2.99174 18.5 3.00033ZM21.9867 29.9768L21.7709 28.8991C21.7557 28.8226 21.7144 28.7539 21.6541 28.7045C21.5939 28.655 21.5184 28.628 21.4405 28.6279H15.5595C15.4816 28.628 15.4061 28.655 15.3459 28.7045C15.2856 28.7539 15.2443 28.8226 15.2291 28.8991L15.0133 29.9768H21.9867ZM8.09777 9.445L8.11665 9.43825C8.21377 11.4885 8.44442 13.7545 9.02172 15.8721L7.58386 15.075C7.05916 14.7823 6.73005 14.5988 6.49265 14.4343C6.27414 14.2819 6.20265 14.1915 6.16354 14.1241C6.12307 14.0566 6.07991 13.9514 6.05293 13.687C6.02433 13.266 6.01443 12.8438 6.02326 12.4218V12.3234C6.02326 11.5964 6.0246 11.1364 6.06372 10.7884C6.10149 10.4674 6.16084 10.3474 6.21479 10.2745C6.2674 10.2003 6.36181 10.1059 6.65451 9.96969C6.97284 9.82132 7.40986 9.67565 8.09777 9.445ZM28.8834 9.4369C28.7876 11.4871 28.5556 13.7531 27.9796 15.8708L29.4161 15.0736C29.9408 14.7809 30.27 14.5975 30.5074 14.4329C30.7259 14.2805 30.7973 14.1902 30.8365 14.1227C30.8769 14.0553 30.9201 13.9501 30.9471 13.6857C30.9754 13.397 30.9767 13.0207 30.9767 12.4205V12.322C30.9767 11.595 30.9754 11.1351 30.9363 10.7871C30.8985 10.4661 30.8392 10.346 30.7852 10.2732C30.7326 10.199 30.6382 10.1046 30.3455 9.96834C30.0272 9.81997 29.5901 9.67295 28.9022 9.4423L28.8834 9.4369ZM12.7647 5.47676C14.6606 5.16658 16.579 5.01499 18.5 5.02356C20.847 5.02356 22.7718 5.22993 24.2353 5.47676C25.8633 5.75192 26.2046 5.85443 26.5647 6.29685C26.9181 6.73117 26.9518 7.14391 26.879 8.97156C26.7576 12.0172 26.3556 15.3056 25.112 17.8063C24.4969 19.0392 23.693 20.0481 22.6477 20.7495C21.6077 21.4468 20.2656 21.8838 18.5 21.8838C16.7344 21.8838 15.3936 21.4468 14.3537 20.7495C13.307 20.0481 12.5031 19.0392 11.8893 17.805C10.6444 15.3056 10.2438 12.0185 10.1224 8.97021C10.0495 7.14391 10.0819 6.73117 10.4367 6.29685C10.7954 5.85443 11.1367 5.75192 12.7647 5.47676Z" fill="#696969" stroke="#696969" stroke-width="0.5"/>
</svg>
