<svg width="37" height="37" viewBox="0 0 37 37" fill="none" xmlns="http://www.w3.org/2000/svg">
<path d="M32 11.6782V11.7788C32 12.964 32 13.558 31.7205 14.0431C31.4411 14.5282 30.9322 14.8162 29.917 15.3936L28.8464 16C29.5835 13.4532 29.8305 10.7163 29.921 8.37623L29.9345 8.07166L29.9372 8C30.8161 8.31146 31.3101 8.54436 31.6179 8.97984C32 9.52145 32 10.2408 32 11.6782ZM5 11.6782V11.7788C5 12.964 5 13.558 5.27945 14.0431C5.5589 14.5282 6.06785 14.8162 7.08305 15.3936L8.15495 16C7.4165 13.4532 7.16945 10.7163 7.079 8.37623L7.0655 8.07166L7.06415 8C6.18395 8.31146 5.68985 8.54436 5.38205 8.97984C5 9.52145 5 10.2422 5 11.6782Z" fill="#CDA6FF"/>
<path fill-rule="evenodd" clip-rule="evenodd" d="M24.4513 3.48529C22.4841 3.15388 20.4934 2.99167 18.4999 3.00033C16.0755 3.00033 14.0767 3.21975 12.5484 3.48529C10.9997 3.75362 10.2261 3.88779 9.57883 4.70677C8.93297 5.52575 8.96696 6.41041 9.03494 8.17974C9.27017 14.2564 10.5456 21.848 17.4801 22.5189V27.4579H15.5357C15.2215 27.4581 14.917 27.5701 14.6741 27.775C14.4312 27.9798 14.2648 28.2648 14.2032 28.5815L13.9449 29.9036H10.3416C10.0712 29.9036 9.81178 30.0141 9.62053 30.2106C9.42928 30.4072 9.32184 30.6738 9.32184 30.9518C9.32184 31.2298 9.42928 31.4964 9.62053 31.693C9.81178 31.8896 10.0712 32 10.3416 32H26.6581C26.9286 32 27.188 31.8896 27.3792 31.693C27.5705 31.4964 27.6779 31.2298 27.6779 30.9518C27.6779 30.6738 27.5705 30.4072 27.3792 30.2106C27.188 30.0141 26.9286 29.9036 26.6581 29.9036H23.0549L22.7966 28.5815C22.735 28.2648 22.5686 27.9798 22.3257 27.775C22.0827 27.5701 21.7783 27.4581 21.4641 27.4579H19.5197V22.5189C26.4542 21.848 27.731 14.2578 27.9648 8.17974C28.0328 6.41041 28.0682 5.52435 27.4209 4.70677C26.7737 3.88779 26 3.75362 24.4513 3.48529Z" fill="#CDA6FF"/>
</svg>
