<svg width="32" height="33" viewBox="0 0 32 33" fill="none" xmlns="http://www.w3.org/2000/svg">
<g clip-path="url(#clip0_11_527)">
<path fill-rule="evenodd" clip-rule="evenodd" d="M14.4 4.03332C14.8616 3.68713 15.423 3.49999 16 3.49999C16.577 3.49999 17.1384 3.68713 17.6 4.03332L26.9333 11.0333C27.2645 11.2817 27.5333 11.6038 27.7185 11.9741C27.9036 12.3444 28 12.7527 28 13.1667V25.8333C28 26.5406 27.719 27.2188 27.219 27.7189C26.7189 28.219 26.0406 28.5 25.3333 28.5H6.66667C5.95942 28.5 5.28115 28.219 4.78105 27.7189C4.28095 27.2188 4 26.5406 4 25.8333V13.1667C4 12.7527 4.09639 12.3444 4.28153 11.9741C4.46667 11.6038 4.73548 11.2817 5.06667 11.0333L14.4 4.03332Z" fill="#CDA6FF"/>
</g>
<defs>
<clipPath id="clip0_11_527">
<rect width="32" height="32" fill="white" transform="translate(0 0.5)"/>
</clipPath>
</defs>
</svg>
