<svg width="37" height="37" viewBox="0 0 37 37" fill="none" xmlns="http://www.w3.org/2000/svg">
<g clip-path="url(#clip0_11_332)">
<path fill-rule="evenodd" clip-rule="evenodd" d="M16.65 4.08542C17.1837 3.68513 17.8329 3.46875 18.5 3.46875C19.1671 3.46875 19.8163 3.68513 20.35 4.08542L31.1417 12.1792C31.5246 12.4664 31.8354 12.8388 32.0495 13.2669C32.2636 13.6951 32.375 14.1672 32.375 14.6458V29.2917C32.375 30.1094 32.0501 30.8937 31.4719 31.4719C30.8937 32.0501 30.1094 32.375 29.2917 32.375H7.70833C6.89058 32.375 6.10632 32.0501 5.52809 31.4719C4.94985 30.8937 4.625 30.1094 4.625 29.2917V14.6458C4.625 14.1672 4.73645 13.6951 4.95052 13.2669C5.16458 12.8388 5.4754 12.4664 5.85833 12.1792L16.65 4.08542ZM18.5 6.55208L7.70833 14.6458V29.2917H29.2917V14.6458L18.5 6.55208Z" fill="#696969"/>
</g>
<defs>
<clipPath id="clip0_11_332">
<rect width="37" height="37" fill="white"/>
</clipPath>
</defs>
</svg>
