<svg width="125" height="125" viewBox="0 0 125 125" fill="none" xmlns="http://www.w3.org/2000/svg">
<rect x="11.5" y="11.5" width="103" height="103" rx="51.5" fill="#202020"/>
<rect x="11.5" y="11.5" width="103" height="103" rx="51.5" stroke="#CDA6FF"/>
<path d="M63 35C47.544 35 35 47.544 35 63C35 78.456 47.544 91 63 91C78.456 91 91 78.456 91 63C91 47.544 78.456 35 63 35ZM75.992 54.04C75.572 58.464 73.752 69.216 72.828 74.172C72.436 76.272 71.652 76.972 70.924 77.056C69.3 77.196 68.068 75.992 66.5 74.956C64.036 73.332 62.636 72.324 60.256 70.756C57.484 68.936 59.276 67.928 60.872 66.304C61.292 65.884 68.46 59.36 68.6 58.772C68.6194 58.6829 68.6169 58.5905 68.5925 58.5026C68.5681 58.4148 68.5226 58.3343 68.46 58.268C68.292 58.128 68.068 58.184 67.872 58.212C67.62 58.268 63.7 60.872 56.056 66.024C54.936 66.78 53.928 67.172 53.032 67.144C52.024 67.116 50.12 66.584 48.692 66.108C46.928 65.548 45.556 65.24 45.668 64.26C45.724 63.756 46.424 63.252 47.74 62.72C55.916 59.164 61.348 56.812 64.064 55.692C71.848 52.444 73.444 51.884 74.508 51.884C74.732 51.884 75.264 51.94 75.6 52.22C75.88 52.444 75.964 52.752 75.992 52.976C75.964 53.144 76.02 53.648 75.992 54.04Z" fill="white"/>
</svg>
