<svg width="25" height="26" viewBox="0 0 25 26" fill="none" xmlns="http://www.w3.org/2000/svg">
<path d="M21.9229 13.8623L14.8916 21.1748C14.6715 21.4037 14.3729 21.5324 14.0615 21.5324C13.7502 21.5324 13.4516 21.4037 13.2314 21.1748C13.0113 20.9458 12.8876 20.6353 12.8876 20.3115C12.8876 19.9877 13.0113 19.6772 13.2314 19.4482L18.2617 14.2188H3.90625C3.59545 14.2188 3.29738 14.0904 3.07761 13.8618C2.85784 13.6333 2.73438 13.3233 2.73438 13C2.73438 12.6768 2.85784 12.3668 3.07761 12.1382C3.29738 11.9097 3.59545 11.7813 3.90625 11.7813H18.2617L13.2334 6.54878C13.0132 6.31982 12.8896 6.00929 12.8896 5.68549C12.8896 5.3617 13.0132 5.05117 13.2334 4.82221C13.4535 4.59326 13.7521 4.46463 14.0635 4.46463C14.3748 4.46463 14.6734 4.59326 14.8936 4.82221L21.9248 12.1347C22.0341 12.2481 22.1207 12.3828 22.1798 12.5311C22.2389 12.6794 22.2692 12.8384 22.269 12.9989C22.2688 13.1594 22.2381 13.3184 22.1787 13.4665C22.1193 13.6147 22.0324 13.7492 21.9229 13.8623Z" fill="white"/>
</svg>
