<svg width="37" height="37" viewBox="0 0 37 37" fill="none" xmlns="http://www.w3.org/2000/svg">
<path fill-rule="evenodd" clip-rule="evenodd" d="M11.5625 29.2917C12.1759 29.2917 12.764 29.5353 13.1977 29.969C13.6314 30.4027 13.875 30.9909 13.875 31.6042C13.875 32.2175 13.6314 32.8057 13.1977 33.2394C12.764 33.673 12.1759 33.9167 11.5625 33.9167C10.9492 33.9167 10.361 33.673 9.92736 33.2394C9.49368 32.8057 9.25004 32.2175 9.25004 31.6042C9.25004 30.9909 9.49368 30.4027 9.92736 29.969C10.361 29.5353 10.9492 29.2917 11.5625 29.2917ZM26.9792 29.2917C27.5925 29.2917 28.1807 29.5353 28.6144 29.969C29.0481 30.4027 29.2917 30.9909 29.2917 31.6042C29.2917 32.2175 29.0481 32.8057 28.6144 33.2394C28.1807 33.673 27.5925 33.9167 26.9792 33.9167C26.3659 33.9167 25.7777 33.673 25.344 33.2394C24.9103 32.8057 24.6667 32.2175 24.6667 31.6042C24.6667 30.9909 24.9103 30.4027 25.344 29.969C25.7777 29.5353 26.3659 29.2917 26.9792 29.2917ZM4.83779 3.08334C6.00721 3.08348 7.13317 3.52661 7.98901 4.32353C8.84485 5.12045 9.36704 6.21199 9.45046 7.37843L9.47358 7.70834H30.5281C30.9798 7.70828 31.426 7.80745 31.8351 7.99885C32.2443 8.19026 32.6064 8.46922 32.8958 8.816C33.1852 9.16278 33.3949 9.56892 33.5101 10.0057C33.6252 10.4425 33.643 10.8992 33.5621 11.3436L31.0384 25.2186C30.9092 25.929 30.5347 26.5716 29.9802 27.0342C29.4257 27.4968 28.7265 27.7501 28.0044 27.75H10.6853C9.90546 27.75 9.15456 27.4545 8.58386 26.923C8.01317 26.3915 7.66508 25.6635 7.60971 24.8856L6.37637 7.59889C6.34866 7.20954 6.17429 6.8452 5.88845 6.57938C5.60261 6.31357 5.22658 6.16608 4.83625 6.16668H4.62504C4.21617 6.16668 3.82404 6.00425 3.53492 5.71513C3.2458 5.42601 3.08337 5.03389 3.08337 4.62501C3.08337 4.21613 3.2458 3.82401 3.53492 3.53489C3.82404 3.24577 4.21617 3.08334 4.62504 3.08334H4.83779ZM30.5281 10.7917H9.69404L10.6853 24.6667H28.0044L30.5281 10.7917Z" fill="#696969"/>
</svg>
