<svg width="32" height="33" viewBox="0 0 32 33" fill="none" xmlns="http://www.w3.org/2000/svg">
<path d="M10 25.8333C10.5305 25.8333 11.0392 26.044 11.4142 26.4191C11.7893 26.7942 12 27.3029 12 27.8333C12 28.3638 11.7893 28.8725 11.4142 29.2475C11.0392 29.6226 10.5305 29.8333 10 29.8333C9.46959 29.8333 8.96088 29.6226 8.58581 29.2475C8.21073 28.8725 8.00002 28.3638 8.00002 27.8333C8.00002 27.3029 8.21073 26.7942 8.58581 26.4191C8.96088 26.044 9.46959 25.8333 10 25.8333ZM23.3334 25.8333C23.8638 25.8333 24.3725 26.044 24.7476 26.4191C25.1226 26.7942 25.3334 27.3029 25.3334 27.8333C25.3334 28.3638 25.1226 28.8725 24.7476 29.2475C24.3725 29.6226 23.8638 29.8333 23.3334 29.8333C22.8029 29.8333 22.2942 29.6226 21.9191 29.2475C21.5441 28.8725 21.3334 28.3638 21.3334 27.8333C21.3334 27.3029 21.5441 26.7942 21.9191 26.4191C22.2942 26.044 22.8029 25.8333 23.3334 25.8333ZM4.00002 3.16666C6.30135 3.16666 8.03069 4.87732 8.19335 7.16666H26.4027C26.7933 7.1666 27.1792 7.25237 27.5331 7.41791C27.8869 7.58345 28.2001 7.82471 28.4504 8.12463C28.7007 8.42455 28.8821 8.7758 28.9817 9.15355C29.0812 9.5313 29.0966 9.92631 29.0267 10.3107L26.844 22.3107C26.7322 22.9251 26.4083 23.4808 25.9288 23.8809C25.4493 24.281 24.8445 24.5001 24.22 24.5H9.24135C8.56687 24.5 7.91744 24.2444 7.42387 23.7848C6.93029 23.3251 6.62924 22.6954 6.58135 22.0227L5.51469 7.07199C5.45335 6.24666 4.75202 5.83332 4.00002 5.83332C3.6464 5.83332 3.30726 5.69285 3.05721 5.4428C2.80716 5.19275 2.66669 4.85361 2.66669 4.49999C2.66669 4.14637 2.80716 3.80723 3.05721 3.55718C3.30726 3.30713 3.6464 3.16666 4.00002 3.16666Z" fill="#CDA6FF"/>
</svg>
