<svg width="32" height="33" viewBox="0 0 32 33" fill="none" xmlns="http://www.w3.org/2000/svg">
<g clip-path="url(#clip0_232_164)">
<path fill-rule="evenodd" clip-rule="evenodd" d="M9.88804 4.49999C9.5216 5.34123 9.33277 6.24907 9.33337 7.16666C9.33337 7.8739 9.61432 8.55218 10.1144 9.05227C10.6145 9.55237 11.2928 9.83332 12 9.83332H20C20.7073 9.83332 21.3856 9.55237 21.8857 9.05227C22.3857 8.55218 22.6667 7.8739 22.6667 7.16666C22.6667 6.21866 22.4694 5.31599 22.112 4.49999H24C24.7073 4.49999 25.3856 4.78094 25.8857 5.28104C26.3857 5.78114 26.6667 6.45941 26.6667 7.16666V27.1667C26.6667 27.8739 26.3857 28.5522 25.8857 29.0523C25.3856 29.5524 24.7073 29.8333 24 29.8333H8.00004C7.2928 29.8333 6.61452 29.5524 6.11442 29.0523C5.61433 28.5522 5.33337 27.8739 5.33337 27.1667V7.16666C5.33337 6.45941 5.61433 5.78114 6.11442 5.28104C6.61452 4.78094 7.2928 4.49999 8.00004 4.49999H9.88804ZM16 19.1667H12C11.6464 19.1667 11.3073 19.3071 11.0572 19.5572C10.8072 19.8072 10.6667 20.1464 10.6667 20.5C10.6667 20.8536 10.8072 21.1927 11.0572 21.4428C11.3073 21.6928 11.6464 21.8333 12 21.8333H16C16.3537 21.8333 16.6928 21.6928 16.9428 21.4428C17.1929 21.1927 17.3334 20.8536 17.3334 20.5C17.3334 20.1464 17.1929 19.8072 16.9428 19.5572C16.6928 19.3071 16.3537 19.1667 16 19.1667ZM20 13.8333H12C11.6602 13.8337 11.3333 13.9638 11.0862 14.1971C10.8391 14.4304 10.6904 14.7493 10.6705 15.0885C10.6506 15.4278 10.7609 15.7618 10.9791 16.0224C11.1972 16.283 11.5066 16.4505 11.844 16.4907L12 16.5H20C20.3537 16.5 20.6928 16.3595 20.9428 16.1095C21.1929 15.8594 21.3334 15.5203 21.3334 15.1667C21.3334 14.813 21.1929 14.4739 20.9428 14.2238C20.6928 13.9738 20.3537 13.8333 20 13.8333ZM16 3.16666C16.5628 3.16667 17.1192 3.28543 17.633 3.51519C18.1467 3.74495 18.6062 4.08052 18.9814 4.49999C19.552 5.13732 19.92 5.95732 19.988 6.86266L20 7.16666H12C12 6.19999 12.3427 5.31332 12.9134 4.62266L13.0187 4.49999C13.752 3.68132 14.816 3.16666 16 3.16666Z" fill="#CDA6FF"/>
</g>
<defs>
<clipPath id="clip0_232_164">
<rect width="32" height="32" fill="white" transform="translate(0 0.5)"/>
</clipPath>
</defs>
</svg>
