<svg width="37" height="37" viewBox="0 0 37 37" fill="none" xmlns="http://www.w3.org/2000/svg">
<g clip-path="url(#clip0_11_522)">
<path fill-rule="evenodd" clip-rule="evenodd" d="M18.5 6.16667C17.6822 6.16667 16.8979 6.49152 16.3197 7.06976C15.7415 7.648 15.4166 8.43226 15.4166 9.25001H21.5833C21.5833 8.43226 21.2584 7.648 20.6802 7.06976C20.102 6.49152 19.3177 6.16667 18.5 6.16667ZM14.4207 4.62501C15.5076 3.66609 16.9367 3.08334 18.5 3.08334C20.0632 3.08334 21.4908 3.66609 22.5792 4.62501H27.75C28.5677 4.62501 29.352 4.94986 29.9302 5.52809C30.5084 6.10633 30.8333 6.89059 30.8333 7.70834V30.8333C30.8333 31.6511 30.5084 32.4353 29.9302 33.0136C29.352 33.5918 28.5677 33.9167 27.75 33.9167H9.24996C8.43221 33.9167 7.64795 33.5918 7.06971 33.0136C6.49148 32.4353 6.16663 31.6511 6.16663 30.8333V7.70834C6.16663 6.89059 6.49148 6.10633 7.06971 5.52809C7.64795 4.94986 8.43221 4.62501 9.24996 4.62501H14.4207ZM12.5275 7.70834H9.24996V30.8333H27.75V7.70834H24.4724C24.5998 8.2027 24.6646 8.71659 24.6666 9.25001V10.7917C24.6666 11.2005 24.5042 11.5927 24.2151 11.8818C23.926 12.1709 23.5338 12.3333 23.125 12.3333H13.875C13.4661 12.3333 13.074 12.1709 12.7848 11.8818C12.4957 11.5927 12.3333 11.2005 12.3333 10.7917V9.25001C12.3353 8.71659 12.4001 8.2027 12.5275 7.70834ZM12.3333 16.9583C12.3333 16.5495 12.4957 16.1573 12.7848 15.8682C13.074 15.5791 13.4661 15.4167 13.875 15.4167H23.125C23.5338 15.4167 23.926 15.5791 24.2151 15.8682C24.5042 16.1573 24.6666 16.5495 24.6666 16.9583C24.6666 17.3672 24.5042 17.7593 24.2151 18.0485C23.926 18.3376 23.5338 18.5 23.125 18.5H13.875C13.4661 18.5 13.074 18.3376 12.7848 18.0485C12.4957 17.7593 12.3333 17.3672 12.3333 16.9583ZM12.3333 23.125C12.3333 22.7161 12.4957 22.324 12.7848 22.0349C13.074 21.7458 13.4661 21.5833 13.875 21.5833H18.5C18.9088 21.5833 19.301 21.7458 19.5901 22.0349C19.8792 22.324 20.0416 22.7161 20.0416 23.125C20.0416 23.5339 19.8792 23.926 19.5901 24.2151C19.301 24.5042 18.9088 24.6667 18.5 24.6667H13.875C13.4661 24.6667 13.074 24.5042 12.7848 24.2151C12.4957 23.926 12.3333 23.5339 12.3333 23.125Z" fill="#696969"/>
</g>
<defs>
<clipPath id="clip0_11_522">
<rect width="37" height="37" fill="white"/>
</clipPath>
</defs>
</svg>
