<svg width="33" height="33" viewBox="0 0 33 33" fill="none" xmlns="http://www.w3.org/2000/svg">
<g clip-path="url(#clip0_232_58)">
<path d="M21.8333 19.1667C23.6014 19.1667 25.2971 19.869 26.5474 21.1193C27.7976 22.3695 28.5 24.0652 28.5 25.8333V27.1667C28.5 27.8739 28.219 28.5522 27.719 29.0523C27.2189 29.5524 26.5406 29.8333 25.8333 29.8333H7.16667C6.45942 29.8333 5.78115 29.5524 5.28105 29.0523C4.78095 28.5522 4.5 27.8739 4.5 27.1667V25.8333C4.5 24.0652 5.20238 22.3695 6.45262 21.1193C7.70286 19.869 9.39856 19.1667 11.1667 19.1667H21.8333ZM27.1667 11.1667C27.5203 11.1667 27.8594 11.3071 28.1095 11.5572C28.3595 11.8072 28.5 12.1464 28.5 12.5V13.8333H29.8333C30.187 13.8333 30.5261 13.9738 30.7761 14.2238C31.0262 14.4739 31.1667 14.813 31.1667 15.1667C31.1667 15.5203 31.0262 15.8594 30.7761 16.1095C30.5261 16.3595 30.187 16.5 29.8333 16.5H28.5V17.8333C28.5 18.1869 28.3595 18.5261 28.1095 18.7761C27.8594 19.0262 27.5203 19.1667 27.1667 19.1667C26.813 19.1667 26.4739 19.0262 26.2239 18.7761C25.9738 18.5261 25.8333 18.1869 25.8333 17.8333V16.5H24.5C24.1464 16.5 23.8072 16.3595 23.5572 16.1095C23.3071 15.8594 23.1667 15.5203 23.1667 15.1667C23.1667 14.813 23.3071 14.4739 23.5572 14.2238C23.8072 13.9738 24.1464 13.8333 24.5 13.8333H25.8333V12.5C25.8333 12.1464 25.9738 11.8072 26.2239 11.5572C26.4739 11.3071 26.813 11.1667 27.1667 11.1667ZM16.5 3.16666C18.2681 3.16666 19.9638 3.86904 21.214 5.11928C22.4643 6.36952 23.1667 8.06521 23.1667 9.83332C23.1667 11.6014 22.4643 13.2971 21.214 14.5474C19.9638 15.7976 18.2681 16.5 16.5 16.5C14.7319 16.5 13.0362 15.7976 11.786 14.5474C10.5357 13.2971 9.83333 11.6014 9.83333 9.83332C9.83333 8.06521 10.5357 6.36952 11.786 5.11928C13.0362 3.86904 14.7319 3.16666 16.5 3.16666Z" fill="#CDA6FF"/>
</g>
<defs>
<clipPath id="clip0_232_58">
<rect width="32" height="32" fill="white" transform="translate(0.5 0.5)"/>
</clipPath>
</defs>
</svg>
