<svg width="37" height="37" viewBox="0 0 37 37" fill="none" xmlns="http://www.w3.org/2000/svg">
<g clip-path="url(#clip0_232_19)">
<path fill-rule="evenodd" clip-rule="evenodd" d="M24.6667 21.5833C26.711 21.5833 28.6717 22.3955 30.1173 23.8411C31.5629 25.2867 32.375 27.2473 32.375 29.2917V32.375C32.375 32.7839 32.2126 33.176 31.9235 33.4651C31.6343 33.7543 31.2422 33.9167 30.8333 33.9167C30.4245 33.9167 30.0323 33.7543 29.7432 33.4651C29.4541 33.176 29.2917 32.7839 29.2917 32.375V29.2917C29.2917 28.0651 28.8044 26.8887 27.937 26.0213C27.0697 25.154 25.8933 24.6667 24.6667 24.6667H12.3333C11.1067 24.6667 9.93032 25.154 9.06296 26.0213C8.19561 26.8887 7.70833 28.0651 7.70833 29.2917V32.375C7.70833 32.7839 7.54591 33.176 7.25679 33.4651C6.96767 33.7543 6.57554 33.9167 6.16667 33.9167C5.75779 33.9167 5.36566 33.7543 5.07654 33.4651C4.78743 33.176 4.625 32.7839 4.625 32.375V29.2917C4.625 27.2473 5.43713 25.2867 6.88272 23.8411C8.32831 22.3955 10.289 21.5833 12.3333 21.5833H24.6667ZM30.8333 12.3333C31.2422 12.3333 31.6343 12.4958 31.9235 12.7849C32.2126 13.074 32.375 13.4661 32.375 13.875V15.4167H33.9167C34.3255 15.4167 34.7177 15.5791 35.0068 15.8682C35.2959 16.1573 35.4583 16.5495 35.4583 16.9583C35.4583 17.3672 35.2959 17.7593 35.0068 18.0485C34.7177 18.3376 34.3255 18.5 33.9167 18.5H32.375V20.0417C32.375 20.4506 32.2126 20.8427 31.9235 21.1318C31.6343 21.4209 31.2422 21.5833 30.8333 21.5833C30.4245 21.5833 30.0323 21.4209 29.7432 21.1318C29.4541 20.8427 29.2917 20.4506 29.2917 20.0417V18.5H27.75C27.3411 18.5 26.949 18.3376 26.6599 18.0485C26.3708 17.7593 26.2083 17.3672 26.2083 16.9583C26.2083 16.5495 26.3708 16.1573 26.6599 15.8682C26.949 15.5791 27.3411 15.4167 27.75 15.4167H29.2917V13.875C29.2917 13.4661 29.4541 13.074 29.7432 12.7849C30.0323 12.4958 30.4245 12.3333 30.8333 12.3333ZM18.5 3.08334C20.5444 3.08334 22.505 3.89547 23.9506 5.34106C25.3962 6.78666 26.2083 8.7473 26.2083 10.7917C26.2083 12.8361 25.3962 14.7967 23.9506 16.2423C22.505 17.6879 20.5444 18.5 18.5 18.5C16.4556 18.5 14.495 17.6879 13.0494 16.2423C11.6038 14.7967 10.7917 12.8361 10.7917 10.7917C10.7917 8.7473 11.6038 6.78666 13.0494 5.34106C14.495 3.89547 16.4556 3.08334 18.5 3.08334ZM18.5 6.16668C17.8926 6.16668 17.2912 6.28631 16.7301 6.51873C16.169 6.75116 15.6591 7.09184 15.2296 7.52131C14.8002 7.95078 14.4595 8.46064 14.2271 9.02177C13.9946 9.5829 13.875 10.1843 13.875 10.7917C13.875 11.399 13.9946 12.0005 14.2271 12.5616C14.4595 13.1227 14.8002 13.6326 15.2296 14.062C15.6591 14.4915 16.169 14.8322 16.7301 15.0646C17.2912 15.297 17.8926 15.4167 18.5 15.4167C19.7266 15.4167 20.903 14.9294 21.7704 14.062C22.6377 13.1947 23.125 12.0183 23.125 10.7917C23.125 9.56505 22.6377 8.38866 21.7704 7.52131C20.903 6.65395 19.7266 6.16668 18.5 6.16668Z" fill="#696969"/>
</g>
<defs>
<clipPath id="clip0_232_19">
<rect width="37" height="37" fill="white"/>
</clipPath>
</defs>
</svg>
